<svg viewBox="0 0 92.168 92.168" xml:space="preserve" xmlns="http://www.w3.org/2000/svg"><path clip-rule="evenodd" fill="none" fill-rule="evenodd" d="M0 0h92.168v92.168H0z"></path><path clip-rule="evenodd" d="M13.226 26.261c4.232 3.978 8.232 4.973 14.608-.552 6.409-5.569 14.896-6.288 24.056-.619 8.1 5.006 14.023 10.277 19.935 15.559 6.166 5.514 11.514 9.813 18.31 7.614 2.077-.663 3.028.133.575 1.503-2.917 1.624-8.078 3.039-11.293 1.801C68.864 47.5 62.013 43.058 54.388 37.81c-1.967-1.359-3.724-1.68-4.553-.453-.729 1.083-1.834 1.879-2.663 2.409-1.127.729-.873 1.669-.63 2.962.586 3.216 2.995 6.265 4.906 9.216.917 1.425.917 1.481-.077 2.939-2.917 4.255-6.288 7.47-8.022 11.68-.586 1.426-.63 3.094.265 3.514.586.276 1.879.718-.022 1.05-2.707.475-3.956-3.425-2.873-5.492 1.017-1.945 4.287-7.757 4.497-8.111.851-1.403.387-2.983-.475-3.823-3.558-3.392-7.028-7.58-9.326-12.232-.365-.751-.829-.962-1.569-1.05-.995-.121-2.298-.354-3.028-.387-.873-.044-1.094.066-.641 1.127.42 1.006 1.503 2.221 2.895 2.641 2.055.619 1.68 1.481 1.083 1.801-.74.387-2.199.387-3.337-.331-2.122-1.326-4.033-3.105-5.415-5.205-.365-.552-.486-.519-1.536-.486-5.702.166-9.923-1.746-12.851-4.674-1.326-1.326-6.509.011-8.1.497-2.199.674-3.492-.74-2.663-2.409.718-1.415 2.807-2.354 4.42-3.823.939-.862 1.525-2.099 2.464-2.586 1.403-.707.928-1.26.354-2.265-.497-.862-.077-1.503-.442-2.166-.873-1.613.133-1.525 2.077.276 1.315 1.213 2.785 2.616 4.1 3.832zm28.531 42.675c-.365-.298-.674-.332-.464.254.144.42.475.829.796 1.127.817.785.353-.795-.332-1.381z" fill="#240041" fill-rule="evenodd" class="fill-434a54"></path></svg>